<svg xmlns="http://www.w3.org/2000/svg" viewBox="0 0 800 550" preserveAspectRatio="xMidYMid slice">
  <defs>
    <linearGradient id="lg" x1="0" y1="0" x2="0" y2="1">
      <stop offset="0%" stop-color="#0F1729"/>
      <stop offset="100%" stop-color="#1E293B"/>
    </linearGradient>
  </defs>
  <rect width="800" height="550" fill="url(#lg)"/>
  <!-- Top nav -->
  <rect x="0" y="0" width="800" height="64" fill="#0A0F1C"/>
  <text x="40" y="40" font-family="serif" font-weight="700" font-size="20" fill="#E8DCC8">Beauregard &amp; Co.</text>
  <rect x="520" y="26" width="56" height="12" rx="2" fill="#94A3B8" opacity="0.5"/>
  <rect x="592" y="26" width="56" height="12" rx="2" fill="#94A3B8" opacity="0.5"/>
  <rect x="664" y="26" width="56" height="12" rx="2" fill="#94A3B8" opacity="0.5"/>
  <!-- Hero -->
  <text x="80" y="180" font-family="serif" font-weight="700" font-size="48" fill="#F1F5F9">Trial Attorneys</text>
  <text x="80" y="232" font-family="serif" font-weight="700" font-size="48" fill="#E8DCC8" font-style="italic">for the Gulf Coast.</text>
  <rect x="80" y="270" width="540" height="3" fill="#FB923C"/>
  <text x="80" y="310" font-family="sans-serif" font-size="15" fill="#94A3B8">Serving Mississippi families for over 30 years.</text>
  <rect x="80" y="340" width="160" height="44" rx="2" fill="#E8DCC8"/>
  <text x="160" y="368" text-anchor="middle" font-family="sans-serif" font-weight="600" font-size="13" fill="#0F1729">FREE CONSULTATION</text>
  <!-- Practice areas grid -->
  <rect x="80"  y="430" width="200" height="80" rx="4" fill="#1E293B" stroke="#334155"/>
  <rect x="300" y="430" width="200" height="80" rx="4" fill="#1E293B" stroke="#334155"/>
  <rect x="520" y="430" width="200" height="80" rx="4" fill="#1E293B" stroke="#334155"/>
  <text x="100" y="460" font-family="serif" font-weight="700" font-size="14" fill="#E8DCC8">Personal Injury</text>
  <rect x="100" y="472" width="140" height="6" rx="3" fill="#94A3B8" opacity="0.4"/>
  <rect x="100" y="486" width="100" height="6" rx="3" fill="#94A3B8" opacity="0.4"/>
  <text x="320" y="460" font-family="serif" font-weight="700" font-size="14" fill="#E8DCC8">Family Law</text>
  <rect x="320" y="472" width="140" height="6" rx="3" fill="#94A3B8" opacity="0.4"/>
  <rect x="320" y="486" width="100" height="6" rx="3" fill="#94A3B8" opacity="0.4"/>
  <text x="540" y="460" font-family="serif" font-weight="700" font-size="14" fill="#E8DCC8">Estate Planning</text>
  <rect x="540" y="472" width="140" height="6" rx="3" fill="#94A3B8" opacity="0.4"/>
  <rect x="540" y="486" width="100" height="6" rx="3" fill="#94A3B8" opacity="0.4"/>
</svg>
