<svg xmlns="http://www.w3.org/2000/svg" viewBox="0 0 800 550" preserveAspectRatio="xMidYMid slice">
  <defs>
    <linearGradient id="cg" x1="0" y1="0" x2="0" y2="1">
      <stop offset="0%" stop-color="#1A1F1A"/>
      <stop offset="100%" stop-color="#2A3326"/>
    </linearGradient>
  </defs>
  <rect width="800" height="550" fill="url(#cg)"/>
  <!-- Top nav -->
  <rect x="0" y="0" width="800" height="56" fill="#0F1410"/>
  <rect x="32" y="20" width="36" height="16" fill="#FB923C"/>
  <text x="80" y="36" font-family="sans-serif" font-weight="800" font-size="18" fill="#E8DCC8">DELTA BUILD CO.</text>
  <rect x="640" y="22" width="120" height="14" fill="#FB923C"/>
  <text x="700" y="32" text-anchor="middle" font-family="sans-serif" font-weight="700" font-size="10" fill="#0F1410">CALL: 228-555-0143</text>
  <!-- Hero -->
  <text x="40" y="180" font-family="sans-serif" font-weight="800" font-size="56" fill="#F1F5F9">BUILT TO LAST.</text>
  <text x="40" y="232" font-family="sans-serif" font-weight="800" font-size="56" fill="#FB923C">PRICED RIGHT.</text>
  <rect x="40" y="260" width="540" height="2" fill="#5EEAD4"/>
  <text x="40" y="296" font-family="sans-serif" font-size="14" fill="#94A3B8">Custom homes, renovations, and storm restoration across the Mississippi Gulf Coast.</text>
  <rect x="40" y="320" width="180" height="50" rx="0" fill="#FB923C"/>
  <text x="130" y="352" text-anchor="middle" font-family="sans-serif" font-weight="800" font-size="14" fill="#0F1410">REQUEST A QUOTE</text>
  <rect x="240" y="320" width="180" height="50" rx="0" fill="none" stroke="#E8DCC8" stroke-width="2"/>
  <text x="330" y="352" text-anchor="middle" font-family="sans-serif" font-weight="800" font-size="14" fill="#E8DCC8">VIEW PROJECTS</text>
  <!-- Services row -->
  <rect x="40"  y="420" width="170" height="100" rx="2" fill="#2A3326" stroke="#3F4D38"/>
  <rect x="230" y="420" width="170" height="100" rx="2" fill="#2A3326" stroke="#3F4D38"/>
  <rect x="420" y="420" width="170" height="100" rx="2" fill="#2A3326" stroke="#3F4D38"/>
  <rect x="610" y="420" width="170" height="100" rx="2" fill="#2A3326" stroke="#3F4D38"/>
  <circle cx="70" cy="450" r="12" fill="#FB923C"/>
  <circle cx="260" cy="450" r="12" fill="#FB923C"/>
  <circle cx="450" cy="450" r="12" fill="#FB923C"/>
  <circle cx="640" cy="450" r="12" fill="#FB923C"/>
  <text x="60" y="490" font-family="sans-serif" font-weight="700" font-size="13" fill="#E8DCC8">NEW BUILDS</text>
  <text x="250" y="490" font-family="sans-serif" font-weight="700" font-size="13" fill="#E8DCC8">REMODELS</text>
  <text x="440" y="490" font-family="sans-serif" font-weight="700" font-size="13" fill="#E8DCC8">ROOFING</text>
  <text x="630" y="490" font-family="sans-serif" font-weight="700" font-size="13" fill="#E8DCC8">STORM REPAIR</text>
</svg>
