<svg xmlns="http://www.w3.org/2000/svg" viewBox="0 0 800 550" preserveAspectRatio="xMidYMid slice">
  <defs>
    <linearGradient id="bg1" x1="0" y1="0" x2="1" y2="1">
      <stop offset="0%" stop-color="#1F1419"/>
      <stop offset="100%" stop-color="#2A1B23"/>
    </linearGradient>
  </defs>
  <rect width="800" height="550" fill="url(#bg1)"/>
  <!-- Nav -->
  <rect x="0" y="0" width="800" height="60" fill="#15090E"/>
  <text x="400" y="38" text-anchor="middle" font-family="serif" font-weight="800" font-size="22" letter-spacing="6" fill="#E8DCC8">MAGNOLIA &amp; OAK</text>
  <line x1="0" y1="60" x2="800" y2="60" stroke="#3F2A33" stroke-width="1"/>
  <!-- Hero block -->
  <rect x="40" y="100" width="360" height="380" rx="4" fill="#3F2A33"/>
  <rect x="80" y="180" width="280" height="60" rx="2" fill="#E8DCC8" opacity="0.15"/>
  <text x="220" y="220" text-anchor="middle" font-family="serif" font-style="italic" font-size="24" fill="#E8DCC8">summer</text>
  <text x="220" y="320" text-anchor="middle" font-family="serif" font-weight="800" font-size="48" fill="#E8DCC8">EDIT '26</text>
  <rect x="160" y="350" width="120" height="40" rx="0" fill="#E8DCC8"/>
  <text x="220" y="376" text-anchor="middle" font-family="sans-serif" font-weight="600" font-size="12" letter-spacing="2" fill="#1F1419">SHOP NOW</text>
  <!-- Product grid right -->
  <rect x="420" y="100" width="160" height="180" rx="4" fill="#3F2A33"/>
  <rect x="600" y="100" width="160" height="180" rx="4" fill="#3F2A33"/>
  <rect x="420" y="300" width="160" height="180" rx="4" fill="#3F2A33"/>
  <rect x="600" y="300" width="160" height="180" rx="4" fill="#3F2A33"/>
  <text x="500" y="200" text-anchor="middle" font-family="serif" font-size="32" fill="#E8DCC8" opacity="0.4">$48</text>
  <text x="680" y="200" text-anchor="middle" font-family="serif" font-size="32" fill="#E8DCC8" opacity="0.4">$72</text>
  <text x="500" y="400" text-anchor="middle" font-family="serif" font-size="32" fill="#E8DCC8" opacity="0.4">$36</text>
  <text x="680" y="400" text-anchor="middle" font-family="serif" font-size="32" fill="#E8DCC8" opacity="0.4">$58</text>
  <rect x="420" y="490" width="340" height="40" rx="4" fill="#3F2A33" opacity="0.6"/>
</svg>
