<svg xmlns="http://www.w3.org/2000/svg" viewBox="0 0 800 550" preserveAspectRatio="xMidYMid slice">
  <defs>
    <linearGradient id="cpag" x1="0" y1="0" x2="0" y2="1">
      <stop offset="0%" stop-color="#0F1B2D"/>
      <stop offset="100%" stop-color="#1A2C44"/>
    </linearGradient>
  </defs>
  <rect width="800" height="550" fill="url(#cpag)"/>
  <!-- Nav -->
  <rect x="0" y="0" width="800" height="60" fill="#08111E"/>
  <text x="40" y="38" font-family="serif" font-weight="700" font-size="20" fill="#E8DCC8">Thibodeaux CPA, P.A.</text>
  <text x="560" y="38" font-family="sans-serif" font-size="13" fill="#94A3B8">Services</text>
  <text x="640" y="38" font-family="sans-serif" font-size="13" fill="#94A3B8">About</text>
  <text x="700" y="38" font-family="sans-serif" font-size="13" fill="#94A3B8">Contact</text>
  <!-- Hero -->
  <text x="60" y="180" font-family="serif" font-weight="700" font-size="44" fill="#F1F5F9">Tax planning</text>
  <text x="60" y="228" font-family="serif" font-weight="700" font-size="44" fill="#5EEAD4">that pays off.</text>
  <text x="60" y="266" font-family="sans-serif" font-size="14" fill="#94A3B8">Small business accounting &amp; tax strategy in Ocean Springs.</text>
  <rect x="60" y="290" width="160" height="44" rx="4" fill="#5EEAD4"/>
  <text x="140" y="318" text-anchor="middle" font-family="sans-serif" font-weight="600" font-size="13" fill="#08111E">Free Consultation</text>
  <!-- Stats block right -->
  <rect x="460" y="120" width="300" height="240" rx="8" fill="#1A2C44" stroke="#2A3F5C"/>
  <text x="480" y="160" font-family="sans-serif" font-weight="600" font-size="11" letter-spacing="2" fill="#94A3B8">CLIENT RESULTS</text>
  <text x="480" y="220" font-family="serif" font-weight="700" font-size="44" fill="#5EEAD4">$2.4M</text>
  <text x="480" y="240" font-family="sans-serif" font-size="12" fill="#94A3B8">in tax savings recovered</text>
  <line x1="480" y1="260" x2="740" y2="260" stroke="#2A3F5C"/>
  <text x="480" y="300" font-family="serif" font-weight="700" font-size="32" fill="#F1F5F9">200+</text>
  <text x="480" y="322" font-family="sans-serif" font-size="12" fill="#94A3B8">small businesses served</text>
  <!-- Bottom service strip -->
  <rect x="0" y="430" width="800" height="120" fill="#08111E"/>
  <rect x="60" y="455" width="200" height="70" rx="4" fill="#1A2C44"/>
  <rect x="280" y="455" width="200" height="70" rx="4" fill="#1A2C44"/>
  <rect x="500" y="455" width="240" height="70" rx="4" fill="#1A2C44"/>
  <rect x="80" y="475" width="6" height="30" fill="#5EEAD4"/>
  <text x="100" y="492" font-family="serif" font-weight="700" font-size="14" fill="#E8DCC8">Tax Returns</text>
  <text x="100" y="510" font-family="sans-serif" font-size="11" fill="#94A3B8">Individual &amp; business</text>
  <rect x="300" y="475" width="6" height="30" fill="#5EEAD4"/>
  <text x="320" y="492" font-family="serif" font-weight="700" font-size="14" fill="#E8DCC8">Bookkeeping</text>
  <text x="320" y="510" font-family="sans-serif" font-size="11" fill="#94A3B8">Monthly &amp; quarterly</text>
  <rect x="520" y="475" width="6" height="30" fill="#5EEAD4"/>
  <text x="540" y="492" font-family="serif" font-weight="700" font-size="14" fill="#E8DCC8">Payroll &amp; Advisory</text>
  <text x="540" y="510" font-family="sans-serif" font-size="11" fill="#94A3B8">Full-service back office</text>
</svg>
